<?xml version="1.0" encoding="UTF-8" standalone="no"?>
<!DOCTYPE svg PUBLIC "-//W3C//DTD SVG 1.1//EN"
 "http://www.w3.org/Graphics/SVG/1.1/DTD/svg11.dtd">
<!-- Generated by graphviz version 2.43.0 (0)
 -->
<!-- Title: pipeline_flow Pages: 1 -->
<svg width="687pt" height="1173pt"
 viewBox="0.00 0.00 687.00 1173.00" xmlns="http://www.w3.org/2000/svg" xmlns:xlink="http://www.w3.org/1999/xlink">
<g id="graph0" class="graph" transform="scale(1 1) rotate(0) translate(4 1169)">
<title>pipeline_flow</title>
<polygon fill="white" stroke="transparent" points="-4,4 -4,-1169 683,-1169 683,4 -4,4"/>
<text text-anchor="middle" x="339.5" y="-1152.2" font-family="Helvetica,sans-Serif" font-size="11.00">Per&#45;Event Execution Spine</text>
<text text-anchor="middle" x="339.5" y="-1140.2" font-family="Helvetica,sans-Serif" font-size="11.00">(context_intelligence_server)</text>
<g id="clust1" class="cluster">
<title>cluster_legend</title>
<polygon fill="none" stroke="#aaaaaa" stroke-dasharray="5,2" points="536,-870 536,-1125 650,-1125 650,-870 536,-870"/>
<text text-anchor="middle" x="593" y="-1113" font-family="Helvetica,sans-Serif" font-size="10.00">Legend</text>
</g>
<!-- EventReceived -->
<g id="node1" class="node">
<title>EventReceived</title>
<ellipse fill="#e3f2fd" stroke="black" cx="420" cy="-1080" rx="61.17" ry="18"/>
<text text-anchor="middle" x="420" y="-1077.2" font-family="Helvetica,sans-Serif" font-size="11.00">Event Received</text>
</g>
<!-- HasSessionId -->
<g id="node2" class="node">
<title>HasSessionId</title>
<polygon fill="#fff9c4" stroke="black" points="420,-1011 339.42,-993 420,-975 500.58,-993 420,-1011"/>
<text text-anchor="middle" x="420" y="-990.2" font-family="Helvetica,sans-Serif" font-size="11.00">HasSessionId?</text>
</g>
<!-- EventReceived&#45;&gt;HasSessionId -->
<g id="edge1" class="edge">
<title>EventReceived&#45;&gt;HasSessionId</title>
<path fill="none" stroke="black" d="M420,-1061.97C420,-1061.97 420,-1021 420,-1021"/>
<polygon fill="black" stroke="black" points="423.5,-1021 420,-1011 416.5,-1021 423.5,-1021"/>
</g>
<!-- EnsureSessionNode -->
<g id="node3" class="node">
<title>EnsureSessionNode</title>
<path fill="#f5f5f5" stroke="black" d="M368,-914C368,-914 204,-914 204,-914 198,-914 192,-908 192,-902 192,-902 192,-890 192,-890 192,-884 198,-878 204,-878 204,-878 368,-878 368,-878 374,-878 380,-884 380,-890 380,-890 380,-902 380,-902 380,-908 374,-914 368,-914"/>
<text text-anchor="middle" x="286" y="-899.2" font-family="Helvetica,sans-Serif" font-size="11.00">EnsureSessionNode</text>
<text text-anchor="middle" x="286" y="-887.2" font-family="Helvetica,sans-Serif" font-size="11.00">MERGE (:Session {session_id})</text>
</g>
<!-- HasSessionId&#45;&gt;EnsureSessionNode -->
<g id="edge2" class="edge">
<title>HasSessionId&#45;&gt;EnsureSessionNode</title>
<path fill="none" stroke="black" d="M359.61,-988.32C359.61,-988.32 359.61,-924.29 359.61,-924.29"/>
<polygon fill="black" stroke="black" points="363.11,-924.29 359.61,-914.29 356.11,-924.29 363.11,-924.29"/>
<text text-anchor="middle" x="407" y="-942" font-family="Helvetica,sans-Serif" font-size="10.00">yes</text>
</g>
<!-- HasBlobStore -->
<g id="node4" class="node">
<title>HasBlobStore</title>
<polygon fill="#fff9c4" stroke="black" points="376,-827 293.52,-809 376,-791 458.48,-809 376,-827"/>
<text text-anchor="middle" x="376" y="-806.2" font-family="Helvetica,sans-Serif" font-size="11.00">HasBlobStore?</text>
</g>
<!-- HasSessionId&#45;&gt;HasBlobStore -->
<g id="edge3" class="edge">
<title>HasSessionId&#45;&gt;HasBlobStore</title>
<path fill="none" stroke="black" d="M419.25,-975.02C419.25,-975.02 419.25,-827.81 419.25,-827.81"/>
<polygon fill="black" stroke="black" points="422.75,-827.81 419.25,-817.81 415.75,-827.81 422.75,-827.81"/>
<text text-anchor="middle" x="472.5" y="-893.5" font-family="Helvetica,sans-Serif" font-size="10.00">no</text>
</g>
<!-- EnsureSessionNode&#45;&gt;HasBlobStore -->
<g id="edge4" class="edge">
<title>EnsureSessionNode&#45;&gt;HasBlobStore</title>
<path fill="none" stroke="black" d="M336.75,-877.97C336.75,-877.97 336.75,-828.89 336.75,-828.89"/>
<polygon fill="black" stroke="black" points="340.25,-828.89 336.75,-818.89 333.25,-828.89 340.25,-828.89"/>
</g>
<!-- BlobOffload -->
<g id="node5" class="node">
<title>BlobOffload</title>
<path fill="#f5f5f5" stroke="black" d="M373.5,-730C373.5,-730 186.5,-730 186.5,-730 180.5,-730 174.5,-724 174.5,-718 174.5,-718 174.5,-698 174.5,-698 174.5,-692 180.5,-686 186.5,-686 186.5,-686 373.5,-686 373.5,-686 379.5,-686 385.5,-692 385.5,-698 385.5,-698 385.5,-718 385.5,-718 385.5,-724 379.5,-730 373.5,-730"/>
<text text-anchor="middle" x="280" y="-717.2" font-family="Helvetica,sans-Serif" font-size="11.00">BlobOffload</text>
<text text-anchor="middle" x="280" y="-705.2" font-family="Helvetica,sans-Serif" font-size="11.00">process_event_data()</text>
<text text-anchor="middle" x="280" y="-693.2" font-family="Helvetica,sans-Serif" font-size="11.00">offload large payloads → blob store</text>
</g>
<!-- HasBlobStore&#45;&gt;BlobOffload -->
<g id="edge5" class="edge">
<title>HasBlobStore&#45;&gt;BlobOffload</title>
<path fill="none" stroke="black" d="M339.5,-798.95C339.5,-798.95 339.5,-740.04 339.5,-740.04"/>
<polygon fill="black" stroke="black" points="343,-740.04 339.5,-730.04 336,-740.04 343,-740.04"/>
<text text-anchor="middle" x="363" y="-758" font-family="Helvetica,sans-Serif" font-size="10.00">yes</text>
</g>
<!-- DefaultHandler -->
<g id="node6" class="node">
<title>DefaultHandler</title>
<path fill="#c8e6c9" stroke="black" stroke-width="2.5" d="M476,-635C476,-635 276,-635 276,-635 270,-635 264,-629 264,-623 264,-623 264,-542 264,-542 264,-536 270,-530 276,-530 276,-530 476,-530 476,-530 482,-530 488,-536 488,-542 488,-542 488,-623 488,-623 488,-629 482,-635 476,-635"/>
<text text-anchor="middle" x="376" y="-622.2" font-family="Helvetica,sans-Serif" font-weight="bold" font-size="11.00">DefaultHandler</text>
<text text-anchor="middle" x="376" y="-610.2" font-family="Helvetica,sans-Serif" font-weight="bold" font-size="11.00">[ALWAYS runs]</text>
<text text-anchor="middle" x="376" y="-585.2" font-family="Helvetica,sans-Serif" font-weight="bold" font-size="11.00">CREATE (:Event {</text>
<text text-anchor="middle" x="376" y="-573.2" font-family="Helvetica,sans-Serif" font-weight="bold" font-size="11.00"> &#160;:FullPascal, :Category, :Event</text>
<text text-anchor="middle" x="376" y="-561.2" font-family="Helvetica,sans-Serif" font-weight="bold" font-size="11.00"> &#160;tool_call_id tiebreaker</text>
<text text-anchor="middle" x="376" y="-549.2" font-family="Helvetica,sans-Serif" font-weight="bold" font-size="11.00">})</text>
<text text-anchor="middle" x="376" y="-537.2" font-family="Helvetica,sans-Serif" font-weight="bold" font-size="11.00">(Session)&#45;[:HAS_EVENT]&#45;&gt;(Event)</text>
</g>
<!-- HasBlobStore&#45;&gt;DefaultHandler -->
<g id="edge6" class="edge">
<title>HasBlobStore&#45;&gt;DefaultHandler</title>
<path fill="none" stroke="black" d="M422,-800.94C422,-800.94 422,-645.06 422,-645.06"/>
<polygon fill="black" stroke="black" points="425.5,-645.06 422,-635.06 418.5,-645.06 425.5,-645.06"/>
<text text-anchor="middle" x="478.5" y="-705.5" font-family="Helvetica,sans-Serif" font-size="10.00">no</text>
</g>
<!-- BlobOffload&#45;&gt;DefaultHandler -->
<g id="edge7" class="edge">
<title>BlobOffload&#45;&gt;DefaultHandler</title>
<path fill="none" stroke="black" d="M324.75,-685.85C324.75,-685.85 324.75,-645.18 324.75,-645.18"/>
<polygon fill="black" stroke="black" points="328.25,-645.18 324.75,-635.18 321.25,-645.18 328.25,-645.18"/>
</g>
<!-- EnricherLoop -->
<g id="node7" class="node">
<title>EnricherLoop</title>
<path fill="#e1bee7" stroke="black" d="M488,-479C488,-479 264,-479 264,-479 258,-479 252,-473 252,-467 252,-467 252,-447 252,-447 252,-441 258,-435 264,-435 264,-435 488,-435 488,-435 494,-435 500,-441 500,-447 500,-447 500,-467 500,-467 500,-473 494,-479 488,-479"/>
<text text-anchor="middle" x="376" y="-466.2" font-family="Helvetica,sans-Serif" font-size="11.00">EnricherLoop</text>
<text text-anchor="middle" x="376" y="-454.2" font-family="Helvetica,sans-Serif" font-size="11.00">for enricher in enrichers[]:</text>
<text text-anchor="middle" x="376" y="-442.2" font-family="Helvetica,sans-Serif" font-size="11.00"> &#160;if event_type in enricher.handled_events</text>
</g>
<!-- DefaultHandler&#45;&gt;EnricherLoop -->
<g id="edge8" class="edge">
<title>DefaultHandler&#45;&gt;EnricherLoop</title>
<path fill="none" stroke="black" d="M376,-529.64C376,-529.64 376,-489.17 376,-489.17"/>
<polygon fill="black" stroke="black" points="379.5,-489.17 376,-479.17 372.5,-489.17 379.5,-489.17"/>
</g>
<!-- SessionHandler -->
<g id="node8" class="node">
<title>SessionHandler</title>
<path fill="#f3e5f5" stroke="black" d="M230,-374C230,-374 12,-374 12,-374 6,-374 0,-368 0,-362 0,-362 0,-330 0,-330 0,-324 6,-318 12,-318 12,-318 230,-318 230,-318 236,-318 242,-324 242,-330 242,-330 242,-362 242,-362 242,-368 236,-374 230,-374"/>
<text text-anchor="middle" x="121" y="-361.2" font-family="Helvetica,sans-Serif" font-size="11.00">SessionHandler [0]</text>
<text text-anchor="middle" x="121" y="-349.2" font-family="Helvetica,sans-Serif" font-size="11.00">session:start | session:fork | session:end</text>
<text text-anchor="middle" x="121" y="-337.2" font-family="Helvetica,sans-Serif" font-size="11.00">MERGE session metadata</text>
<text text-anchor="middle" x="121" y="-325.2" font-family="Helvetica,sans-Serif" font-size="11.00">upsert workspace / repo context</text>
</g>
<!-- EnricherLoop&#45;&gt;SessionHandler -->
<g id="edge9" class="edge">
<title>EnricherLoop&#45;&gt;SessionHandler</title>
<path fill="none" stroke="black" d="M263,-434.8C263,-402.41 263,-346 263,-346 263,-346 252.05,-346 252.05,-346"/>
<polygon fill="black" stroke="black" points="252.05,-342.5 242.05,-346 252.05,-349.5 252.05,-342.5"/>
<text text-anchor="middle" x="225" y="-402" font-family="Helvetica,sans-Serif" font-size="10.00">event_type matches</text>
</g>
<!-- ToolCallHandler -->
<g id="node9" class="node">
<title>ToolCallHandler</title>
<path fill="#f3e5f5" stroke="black" d="M455,-374C455,-374 297,-374 297,-374 291,-374 285,-368 285,-362 285,-362 285,-330 285,-330 285,-324 291,-318 297,-318 297,-318 455,-318 455,-318 461,-318 467,-324 467,-330 467,-330 467,-362 467,-362 467,-368 461,-374 455,-374"/>
<text text-anchor="middle" x="376" y="-361.2" font-family="Helvetica,sans-Serif" font-size="11.00">ToolCallHandler [1]</text>
<text text-anchor="middle" x="376" y="-349.2" font-family="Helvetica,sans-Serif" font-size="11.00">tool:pre | tool:post | tool:error</text>
<text text-anchor="middle" x="376" y="-337.2" font-family="Helvetica,sans-Serif" font-size="11.00">CREATE (:ToolCall)</text>
<text text-anchor="middle" x="376" y="-325.2" font-family="Helvetica,sans-Serif" font-size="11.00">link to parent Event</text>
</g>
<!-- EnricherLoop&#45;&gt;ToolCallHandler -->
<g id="edge10" class="edge">
<title>EnricherLoop&#45;&gt;ToolCallHandler</title>
<path fill="none" stroke="black" d="M376,-434.8C376,-434.8 376,-384.08 376,-384.08"/>
<polygon fill="black" stroke="black" points="379.5,-384.08 376,-374.08 372.5,-384.08 379.5,-384.08"/>
<text text-anchor="middle" x="426" y="-402" font-family="Helvetica,sans-Serif" font-size="10.00">event_type matches</text>
</g>
<!-- IsTerminal -->
<g id="node10" class="node">
<title>IsTerminal</title>
<polygon fill="#fff9c4" stroke="black" points="376,-267 285,-235 376,-203 467,-235 376,-267"/>
<text text-anchor="middle" x="376" y="-238.2" font-family="Helvetica,sans-Serif" font-size="11.00">IsTerminal?</text>
<text text-anchor="middle" x="376" y="-226.2" font-family="Helvetica,sans-Serif" font-size="11.00">(session:end)</text>
</g>
<!-- EnricherLoop&#45;&gt;IsTerminal -->
<g id="edge11" class="edge">
<title>EnricherLoop&#45;&gt;IsTerminal</title>
<path fill="none" stroke="black" d="M274,-434.66C274,-376.34 274,-224 274,-224 274,-224 306.08,-224 306.08,-224"/>
<polygon fill="black" stroke="black" points="306.08,-227.5 316.08,-224 306.08,-220.5 306.08,-227.5"/>
<text text-anchor="middle" x="616" y="-343.5" font-family="Helvetica,sans-Serif" font-size="10.00">no match / after enrichers</text>
</g>
<!-- SessionHandler&#45;&gt;IsTerminal -->
<g id="edge12" class="edge">
<title>SessionHandler&#45;&gt;IsTerminal</title>
<path fill="none" stroke="black" d="M227.75,-317.87C227.75,-287.98 227.75,-245 227.75,-245 227.75,-245 303.13,-245 303.13,-245"/>
<polygon fill="black" stroke="black" points="303.13,-248.5 313.13,-245 303.13,-241.5 303.13,-248.5"/>
</g>
<!-- ToolCallHandler&#45;&gt;IsTerminal -->
<g id="edge13" class="edge">
<title>ToolCallHandler&#45;&gt;IsTerminal</title>
<path fill="none" stroke="black" d="M376,-317.99C376,-317.99 376,-277.33 376,-277.33"/>
<polygon fill="black" stroke="black" points="379.5,-277.33 376,-267.33 372.5,-277.33 379.5,-277.33"/>
</g>
<!-- GraphFlush -->
<g id="node11" class="node">
<title>GraphFlush</title>
<path fill="#ffccbc" stroke="black" d="M360.5,-131C360.5,-131 225.5,-131 225.5,-131 219.5,-131 213.5,-125 213.5,-119 213.5,-119 213.5,-99 213.5,-99 213.5,-93 219.5,-87 225.5,-87 225.5,-87 360.5,-87 360.5,-87 366.5,-87 372.5,-93 372.5,-99 372.5,-99 372.5,-119 372.5,-119 372.5,-125 366.5,-131 360.5,-131"/>
<text text-anchor="middle" x="293" y="-118.2" font-family="Helvetica,sans-Serif" font-size="11.00">GraphFlush</text>
<text text-anchor="middle" x="293" y="-106.2" font-family="Helvetica,sans-Serif" font-size="11.00">graph.flush()</text>
<text text-anchor="middle" x="293" y="-94.2" font-family="Helvetica,sans-Serif" font-size="11.00">commit all pending writes</text>
</g>
<!-- IsTerminal&#45;&gt;GraphFlush -->
<g id="edge14" class="edge">
<title>IsTerminal&#45;&gt;GraphFlush</title>
<path fill="none" stroke="black" d="M328.75,-219.55C328.75,-219.55 328.75,-141.38 328.75,-141.38"/>
<polygon fill="black" stroke="black" points="332.25,-141.38 328.75,-131.38 325.25,-141.38 332.25,-141.38"/>
<text text-anchor="middle" x="363" y="-170" font-family="Helvetica,sans-Serif" font-size="10.00">yes</text>
<text text-anchor="middle" x="363" y="-159" font-family="Helvetica,sans-Serif" font-size="10.00">(session:end)</text>
</g>
<!-- Done -->
<g id="node12" class="node">
<title>Done</title>
<ellipse fill="#e3f2fd" stroke="black" cx="376" cy="-18" rx="27.12" ry="18"/>
<text text-anchor="middle" x="376" y="-15.2" font-family="Helvetica,sans-Serif" font-size="11.00">Done</text>
</g>
<!-- IsTerminal&#45;&gt;Done -->
<g id="edge15" class="edge">
<title>IsTerminal&#45;&gt;Done</title>
<path fill="none" stroke="black" d="M387.78,-207.08C387.78,-207.08 387.78,-44.33 387.78,-44.33"/>
<polygon fill="black" stroke="black" points="391.28,-44.33 387.78,-34.33 384.28,-44.33 391.28,-44.33"/>
<text text-anchor="middle" x="465.5" y="-106.5" font-family="Helvetica,sans-Serif" font-size="10.00">no</text>
</g>
<!-- GraphFlush&#45;&gt;Done -->
<g id="edge16" class="edge">
<title>GraphFlush&#45;&gt;Done</title>
<path fill="none" stroke="black" d="M360.72,-86.97C360.72,-86.97 360.72,-43 360.72,-43"/>
<polygon fill="black" stroke="black" points="364.22,-43 360.72,-33 357.22,-43 364.22,-43"/>
</g>
<!-- LegendAlways -->
<g id="node13" class="node">
<title>LegendAlways</title>
<path fill="#c8e6c9" stroke="black" stroke-width="2.5" d="M626,-1098C626,-1098 560,-1098 560,-1098 554,-1098 548,-1092 548,-1086 548,-1086 548,-1074 548,-1074 548,-1068 554,-1062 560,-1062 560,-1062 626,-1062 626,-1062 632,-1062 638,-1068 638,-1074 638,-1074 638,-1086 638,-1086 638,-1092 632,-1098 626,-1098"/>
<text text-anchor="middle" x="593" y="-1077.5" font-family="Helvetica,sans-Serif" font-weight="bold" font-size="10.00">ALWAYS runs</text>
</g>
<!-- LegendClaimed -->
<g id="node14" class="node">
<title>LegendClaimed</title>
<path fill="#f3e5f5" stroke="black" d="M630,-1011C630,-1011 556,-1011 556,-1011 550,-1011 544,-1005 544,-999 544,-999 544,-987 544,-987 544,-981 550,-975 556,-975 556,-975 630,-975 630,-975 636,-975 642,-981 642,-987 642,-987 642,-999 642,-999 642,-1005 636,-1011 630,-1011"/>
<text text-anchor="middle" x="593" y="-996" font-family="Helvetica,sans-Serif" font-size="10.00">if claimed</text>
<text text-anchor="middle" x="593" y="-985" font-family="Helvetica,sans-Serif" font-size="10.00">(enricher match)</text>
</g>
<!-- LegendAlways&#45;&gt;LegendClaimed -->
<!-- LegendDecision -->
<g id="node15" class="node">
<title>LegendDecision</title>
<polygon fill="#fff9c4" stroke="black" points="593,-914 545.6,-896 593,-878 640.4,-896 593,-914"/>
<text text-anchor="middle" x="593" y="-893.5" font-family="Helvetica,sans-Serif" font-size="10.00">decision</text>
</g>
<!-- LegendClaimed&#45;&gt;LegendDecision -->
</g>
</svg>
