<?xml version="1.0" encoding="UTF-8" standalone="no"?>
<!DOCTYPE svg PUBLIC "-//W3C//DTD SVG 1.1//EN"
 "http://www.w3.org/Graphics/SVG/1.1/DTD/svg11.dtd">
<!-- Generated by graphviz version 2.43.0 (0)
 -->
<!-- Title: handler_architecture Pages: 1 -->
<svg width="1268pt" height="628pt"
 viewBox="0.00 0.00 1267.50 628.00" xmlns="http://www.w3.org/2000/svg" xmlns:xlink="http://www.w3.org/1999/xlink">
<g id="graph0" class="graph" transform="scale(1 1) rotate(0) translate(4 624)">
<title>handler_architecture</title>
<polygon fill="white" stroke="transparent" points="-4,4 -4,-624 1263.5,-624 1263.5,4 -4,4"/>
<text text-anchor="middle" x="629.75" y="-607.2" font-family="Helvetica,sans-Serif" font-size="11.00">Handler Registry Structure</text>
<text text-anchor="middle" x="629.75" y="-595.2" font-family="Helvetica,sans-Serif" font-size="11.00">(PipelineHandlers — default + enrichers[])</text>
<!-- PipelineHandlers -->
<g id="node1" class="node">
<title>PipelineHandlers</title>
<polygon fill="#e3f2fd" stroke="black" points="385,-527.5 385,-587.5 573,-587.5 573,-527.5 385,-527.5"/>
<text text-anchor="middle" x="479" y="-574.7" font-family="Helvetica,sans-Serif" font-size="11.00">PipelineHandlers (NamedTuple)</text>
<polyline fill="none" stroke="black" points="385,-567.5 573,-567.5 "/>
<text text-anchor="middle" x="479" y="-554.7" font-family="Helvetica,sans-Serif" font-size="11.00">default: DefaultHandler</text>
<polyline fill="none" stroke="black" points="385,-547.5 573,-547.5 "/>
<text text-anchor="middle" x="479" y="-534.7" font-family="Helvetica,sans-Serif" font-size="11.00">enrichers: list[Handler]</text>
</g>
<!-- DefaultHandler -->
<g id="node2" class="node">
<title>DefaultHandler</title>
<path fill="#c8e6c9" stroke="black" stroke-width="2.5" d="M510,-450C510,-450 12,-450 12,-450 6,-450 0,-444 0,-438 0,-438 0,-312 0,-312 0,-306 6,-300 12,-300 12,-300 510,-300 510,-300 516,-300 522,-306 522,-312 522,-312 522,-438 522,-438 522,-444 516,-450 510,-450"/>
<text text-anchor="start" x="214" y="-433.2" font-family="Helvetica,sans-Serif" font-weight="bold" font-size="11.00">DefaultHandler</text>
<text text-anchor="start" x="167" y="-412.2" font-family="Helvetica,sans-Serif" font-weight="bold" font-size="11.00">UNCONDITIONAL — ALL events</text>
<text text-anchor="start" x="94" y="-392.2" font-family="Helvetica,sans-Serif" font-weight="bold" font-size="11.00">handled_events = set() (empty — accepts everything)</text>
<text text-anchor="start" x="60" y="-372.2" font-family="Helvetica,sans-Serif" font-weight="bold" font-size="11.00">Field Lifting: ALL matching FieldLifters fire (not first&#45;match&#45;wins)</text>
<text text-anchor="start" x="13" y="-352.2" font-family="Helvetica,sans-Serif" font-weight="bold" font-size="11.00">Creates [:FullPascalEvent, :CategoryEvent, :Event] node + lifted top&#45;level props</text>
<text text-anchor="start" x="114" y="-332.2" font-family="Helvetica,sans-Serif" font-weight="bold" font-size="11.00">Creates (Session)&#45;[:HAS_EVENT]&#45;&gt;(Event) edge</text>
<text text-anchor="start" x="78.5" y="-312.2" font-family="Helvetica,sans-Serif" font-weight="bold" font-size="11.00">See: 04&#45;default&#45;handler&#45;flow.dot for internal pipeline detail</text>
</g>
<!-- PipelineHandlers&#45;&gt;DefaultHandler -->
<g id="edge1" class="edge">
<title>PipelineHandlers&#45;&gt;DefaultHandler</title>
<path fill="none" stroke="black" d="M453.5,-527.36C453.5,-527.36 453.5,-460.09 453.5,-460.09"/>
<polygon fill="black" stroke="black" points="457,-460.09 453.5,-450.09 450,-460.09 457,-460.09"/>
<text text-anchor="middle" x="447.5" y="-486" font-family="Helvetica,sans-Serif" font-size="10.00">default</text>
</g>
<!-- enrichers_label -->
<g id="node3" class="node">
<title>enrichers_label</title>
<text text-anchor="middle" x="697" y="-372.2" font-family="Helvetica,sans-Serif" font-size="11.00">enrichers[] — ordered by priority index</text>
</g>
<!-- PipelineHandlers&#45;&gt;enrichers_label -->
<g id="edge2" class="edge">
<title>PipelineHandlers&#45;&gt;enrichers_label</title>
<path fill="none" stroke="black" d="M547.5,-527.36C547.5,-475.53 547.5,-375 547.5,-375 547.5,-375 570.31,-375 570.31,-375"/>
<polygon fill="black" stroke="black" points="570.31,-378.5 580.31,-375 570.31,-371.5 570.31,-378.5"/>
<text text-anchor="middle" x="635" y="-486" font-family="Helvetica,sans-Serif" font-size="10.00">enrichers</text>
</g>
<!-- note -->
<g id="node7" class="node">
<title>note</title>
<polygon fill="#fff9c4" stroke="black" points="384.5,-202 137.5,-202 137.5,-134 384.5,-134 384.5,-202"/>
<text text-anchor="middle" x="261" y="-189.2" font-family="Helvetica,sans-Serif" font-size="11.00">⚠ IMPORTANT</text>
<text text-anchor="middle" x="261" y="-177.2" font-family="Helvetica,sans-Serif" font-size="11.00">Claiming an event does NOT prevent</text>
<text text-anchor="middle" x="261" y="-165.2" font-family="Helvetica,sans-Serif" font-size="11.00">DefaultHandler from running.</text>
<text text-anchor="middle" x="261" y="-153.2" font-family="Helvetica,sans-Serif" font-size="11.00">Enrichers are ADDITIVE — DefaultHandler</text>
<text text-anchor="middle" x="261" y="-141.2" font-family="Helvetica,sans-Serif" font-size="11.00">always creates the base Event node first.</text>
</g>
<!-- DefaultHandler&#45;&gt;note -->
<g id="edge6" class="edge">
<title>DefaultHandler&#45;&gt;note</title>
<path fill="none" stroke="#aaaaaa" stroke-dasharray="1,5" d="M261,-299.98C261,-266.54 261,-228.8 261,-202.27"/>
</g>
<!-- SessionHandler -->
<g id="node4" class="node">
<title>SessionHandler</title>
<path fill="#f3e5f5" stroke="black" d="M886,-233C886,-233 472,-233 472,-233 466,-233 460,-227 460,-221 460,-221 460,-115 460,-115 460,-109 466,-103 472,-103 472,-103 886,-103 886,-103 892,-103 898,-109 898,-115 898,-115 898,-221 898,-221 898,-227 892,-233 886,-233"/>
<text text-anchor="start" x="620" y="-216.2" font-family="Helvetica,sans-Serif" font-weight="bold" font-size="11.00">SessionHandler [0]</text>
<text text-anchor="start" x="566" y="-195.2" font-family="Helvetica,sans-Serif" font-size="11.00">session:start | session:fork | session:end</text>
<text text-anchor="start" x="473" y="-175.2" font-family="Helvetica,sans-Serif" font-size="11.00">Labels: RootSession:Session | SubSession:Session | ForkedSession:Session</text>
<text text-anchor="start" x="514" y="-155.2" font-family="Helvetica,sans-Serif" font-size="11.00">session:start → SUBSESSION_OF | session:fork → HAS_FORK</text>
<text text-anchor="start" x="517.5" y="-135.2" font-family="Helvetica,sans-Serif" font-size="11.00">(both parent→child — ForkedSession is NOT a SubSession)</text>
<text text-anchor="start" x="569" y="-115.2" font-family="Helvetica,sans-Serif" font-size="11.00">Sets: started_at / ended_at / workspace</text>
</g>
<!-- enrichers_label&#45;&gt;SessionHandler -->
<g id="edge3" class="edge">
<title>enrichers_label&#45;&gt;SessionHandler</title>
<path fill="none" stroke="black" d="M697,-356.99C697,-356.99 697,-243.21 697,-243.21"/>
<polygon fill="black" stroke="black" points="700.5,-243.21 697,-233.21 693.5,-243.21 700.5,-243.21"/>
</g>
<!-- ToolCallHandler -->
<g id="node5" class="node">
<title>ToolCallHandler</title>
<path fill="#f3e5f5" stroke="black" d="M1247.5,-223C1247.5,-223 968.5,-223 968.5,-223 962.5,-223 956.5,-217 956.5,-211 956.5,-211 956.5,-125 956.5,-125 956.5,-119 962.5,-113 968.5,-113 968.5,-113 1247.5,-113 1247.5,-113 1253.5,-113 1259.5,-119 1259.5,-125 1259.5,-125 1259.5,-211 1259.5,-211 1259.5,-217 1253.5,-223 1247.5,-223"/>
<text text-anchor="start" x="1049.5" y="-206.2" font-family="Helvetica,sans-Serif" font-weight="bold" font-size="11.00">ToolCallHandler [1]</text>
<text text-anchor="start" x="1025.5" y="-185.2" font-family="Helvetica,sans-Serif" font-size="11.00">tool:pre | tool:post | tool:error</text>
<text text-anchor="start" x="970" y="-165.2" font-family="Helvetica,sans-Serif" font-size="11.00">Node: :ToolCall (session_id__tool_call__tool_call_id)</text>
<text text-anchor="start" x="1005" y="-145.2" font-family="Helvetica,sans-Serif" font-size="11.00">Edges: HAS_TOOL_CALL / HAS_EVENT</text>
<text text-anchor="start" x="993" y="-125.2" font-family="Helvetica,sans-Serif" font-size="11.00">Correlates: pre→post/error via tool_call_id</text>
</g>
<!-- enrichers_label&#45;&gt;ToolCallHandler -->
<g id="edge4" class="edge">
<title>enrichers_label&#45;&gt;ToolCallHandler</title>
<path fill="none" stroke="black" d="M813.68,-375C935.19,-375 1108,-375 1108,-375 1108,-375 1108,-233.2 1108,-233.2"/>
<polygon fill="black" stroke="black" points="1111.5,-233.2 1108,-223.2 1104.5,-233.2 1111.5,-233.2"/>
</g>
<!-- FutureHandler -->
<g id="node6" class="node">
<title>FutureHandler</title>
<path fill="#fafafa" stroke="#aaaaaa" stroke-dasharray="5,2" d="M1162,-36C1162,-36 1054,-36 1054,-36 1048,-36 1042,-30 1042,-24 1042,-24 1042,-12 1042,-12 1042,-6 1048,0 1054,0 1054,0 1162,0 1162,0 1168,0 1174,-6 1174,-12 1174,-12 1174,-24 1174,-24 1174,-30 1168,-36 1162,-36"/>
<text text-anchor="middle" x="1108" y="-21.2" font-family="Helvetica,sans-Serif" font-size="11.00" fill="#aaaaaa">FutureHandler [N]</text>
<text text-anchor="middle" x="1108" y="-9.2" font-family="Helvetica,sans-Serif" font-size="11.00" fill="#aaaaaa">… extension point …</text>
</g>
<!-- ToolCallHandler&#45;&gt;FutureHandler -->
<g id="edge5" class="edge">
<title>ToolCallHandler&#45;&gt;FutureHandler</title>
<path fill="none" stroke="#aaaaaa" stroke-dasharray="5,2" d="M1108,-113C1108,-113 1108,-46.06 1108,-46.06"/>
<polygon fill="#aaaaaa" stroke="#aaaaaa" points="1111.5,-46.06 1108,-36.06 1104.5,-46.06 1111.5,-46.06"/>
</g>
</g>
</svg>
