<?xml version="1.0" encoding="UTF-8" standalone="no"?>
<!DOCTYPE svg PUBLIC "-//W3C//DTD SVG 1.1//EN"
 "http://www.w3.org/Graphics/SVG/1.1/DTD/svg11.dtd">
<!-- Generated by graphviz version 2.43.0 (0)
 -->
<!-- Title: handler_architecture Pages: 1 -->
<svg width="1050pt" height="568pt"
 viewBox="0.00 0.00 1050.00 568.00" xmlns="http://www.w3.org/2000/svg" xmlns:xlink="http://www.w3.org/1999/xlink">
<g id="graph0" class="graph" transform="scale(1 1) rotate(0) translate(4 564)">
<title>handler_architecture</title>
<polygon fill="white" stroke="transparent" points="-4,4 -4,-564 1046,-564 1046,4 -4,4"/>
<text text-anchor="middle" x="521" y="-547.2" font-family="Helvetica,sans-Serif" font-size="11.00">Handler Registry Structure</text>
<text text-anchor="middle" x="521" y="-535.2" font-family="Helvetica,sans-Serif" font-size="11.00">(PipelineHandlers — default + enrichers[])</text>
<!-- PipelineHandlers -->
<g id="node1" class="node">
<title>PipelineHandlers</title>
<polygon fill="#e3f2fd" stroke="black" points="265.5,-467.5 265.5,-527.5 453.5,-527.5 453.5,-467.5 265.5,-467.5"/>
<text text-anchor="middle" x="359.5" y="-514.7" font-family="Helvetica,sans-Serif" font-size="11.00">PipelineHandlers (NamedTuple)</text>
<polyline fill="none" stroke="black" points="265.5,-507.5 453.5,-507.5 "/>
<text text-anchor="middle" x="359.5" y="-494.7" font-family="Helvetica,sans-Serif" font-size="11.00">default: DefaultHandler</text>
<polyline fill="none" stroke="black" points="265.5,-487.5 453.5,-487.5 "/>
<text text-anchor="middle" x="359.5" y="-474.7" font-family="Helvetica,sans-Serif" font-size="11.00">enrichers: list[Handler]</text>
</g>
<!-- DefaultHandler -->
<g id="node2" class="node">
<title>DefaultHandler</title>
<path fill="#c8e6c9" stroke="black" stroke-width="2.5" d="M351,-390C351,-390 12,-390 12,-390 6,-390 0,-384 0,-378 0,-378 0,-292 0,-292 0,-286 6,-280 12,-280 12,-280 351,-280 351,-280 357,-280 363,-286 363,-292 363,-292 363,-378 363,-378 363,-384 357,-390 351,-390"/>
<text text-anchor="start" x="135" y="-373.2" font-family="Helvetica,sans-Serif" font-weight="bold" font-size="11.00">DefaultHandler</text>
<text text-anchor="start" x="88" y="-352.2" font-family="Helvetica,sans-Serif" font-weight="bold" font-size="11.00">UNCONDITIONAL — ALL events</text>
<text text-anchor="start" x="13.5" y="-332.2" font-family="Helvetica,sans-Serif" font-weight="bold" font-size="11.00">handled_events = set() &#160;(empty — accepts everything)</text>
<text text-anchor="start" x="43" y="-312.2" font-family="Helvetica,sans-Serif" font-weight="bold" font-size="11.00">Creates [:FullPascal, :Category, :Event] node</text>
<text text-anchor="start" x="35" y="-292.2" font-family="Helvetica,sans-Serif" font-weight="bold" font-size="11.00">Creates (Session)&#45;[:HAS_EVENT]&#45;&gt;(Event) edge</text>
</g>
<!-- PipelineHandlers&#45;&gt;DefaultHandler -->
<g id="edge1" class="edge">
<title>PipelineHandlers&#45;&gt;DefaultHandler</title>
<path fill="none" stroke="black" d="M314.25,-467.32C314.25,-467.32 314.25,-400.01 314.25,-400.01"/>
<polygon fill="black" stroke="black" points="317.75,-400.01 314.25,-390.01 310.75,-400.01 317.75,-400.01"/>
<text text-anchor="middle" x="328" y="-426" font-family="Helvetica,sans-Serif" font-size="10.00">default</text>
</g>
<!-- enrichers_label -->
<g id="node3" class="node">
<title>enrichers_label</title>
<text text-anchor="middle" x="537.5" y="-332.2" font-family="Helvetica,sans-Serif" font-size="11.00">enrichers[] — ordered by priority index</text>
</g>
<!-- PipelineHandlers&#45;&gt;enrichers_label -->
<g id="edge2" class="edge">
<title>PipelineHandlers&#45;&gt;enrichers_label</title>
<path fill="none" stroke="black" d="M437.25,-467.32C437.25,-467.32 437.25,-363.4 437.25,-363.4"/>
<polygon fill="black" stroke="black" points="440.75,-363.4 437.25,-353.4 433.75,-363.4 440.75,-363.4"/>
<text text-anchor="middle" x="495.5" y="-426" font-family="Helvetica,sans-Serif" font-size="10.00">enrichers</text>
</g>
<!-- note -->
<g id="node7" class="node">
<title>note</title>
<polygon fill="#fff9c4" stroke="black" points="315.5,-192 47.5,-192 47.5,-124 315.5,-124 315.5,-192"/>
<text text-anchor="middle" x="181.5" y="-179.2" font-family="Helvetica,sans-Serif" font-size="11.00">u26a0 IMPORTANT</text>
<text text-anchor="middle" x="181.5" y="-167.2" font-family="Helvetica,sans-Serif" font-size="11.00">Claiming an event does NOT prevent</text>
<text text-anchor="middle" x="181.5" y="-155.2" font-family="Helvetica,sans-Serif" font-size="11.00">DefaultHandler from running.</text>
<text text-anchor="middle" x="181.5" y="-143.2" font-family="Helvetica,sans-Serif" font-size="11.00">Enrichers are ADDITIVE u2014 DefaultHandler</text>
<text text-anchor="middle" x="181.5" y="-131.2" font-family="Helvetica,sans-Serif" font-size="11.00">always creates the base Event node first.</text>
</g>
<!-- DefaultHandler&#45;&gt;note -->
<g id="edge6" class="edge">
<title>DefaultHandler&#45;&gt;note</title>
<path fill="none" stroke="#aaaaaa" stroke-dasharray="1,5" d="M181.5,-279.97C181.5,-251.25 181.5,-217.01 181.5,-192.14"/>
</g>
<!-- SessionHandler -->
<g id="node4" class="node">
<title>SessionHandler</title>
<path fill="#f3e5f5" stroke="black" d="M668.5,-213C668.5,-213 392.5,-213 392.5,-213 386.5,-213 380.5,-207 380.5,-201 380.5,-201 380.5,-115 380.5,-115 380.5,-109 386.5,-103 392.5,-103 392.5,-103 668.5,-103 668.5,-103 674.5,-103 680.5,-109 680.5,-115 680.5,-115 680.5,-201 680.5,-201 680.5,-207 674.5,-213 668.5,-213"/>
<text text-anchor="start" x="471.5" y="-196.2" font-family="Helvetica,sans-Serif" font-weight="bold" font-size="11.00">SessionHandler [0]</text>
<text text-anchor="start" x="417.5" y="-175.2" font-family="Helvetica,sans-Serif" font-size="11.00">session:start | session:fork | session:end</text>
<text text-anchor="start" x="393.5" y="-155.2" font-family="Helvetica,sans-Serif" font-size="11.00">Labels: RootSession / SubSession / ForkedSession</text>
<text text-anchor="start" x="423.5" y="-135.2" font-family="Helvetica,sans-Serif" font-size="11.00">Edges: SUBSESSION_OF (parent→child)</text>
<text text-anchor="start" x="420.5" y="-115.2" font-family="Helvetica,sans-Serif" font-size="11.00">Sets: started_at / ended_at / workspace</text>
</g>
<!-- enrichers_label&#45;&gt;SessionHandler -->
<g id="edge3" class="edge">
<title>enrichers_label&#45;&gt;SessionHandler</title>
<path fill="none" stroke="black" d="M537.5,-316.72C537.5,-316.72 537.5,-223.32 537.5,-223.32"/>
<polygon fill="black" stroke="black" points="541,-223.32 537.5,-213.32 534,-223.32 541,-223.32"/>
</g>
<!-- ToolCallHandler -->
<g id="node5" class="node">
<title>ToolCallHandler</title>
<path fill="#f3e5f5" stroke="black" d="M1030,-213C1030,-213 751,-213 751,-213 745,-213 739,-207 739,-201 739,-201 739,-115 739,-115 739,-109 745,-103 751,-103 751,-103 1030,-103 1030,-103 1036,-103 1042,-109 1042,-115 1042,-115 1042,-201 1042,-201 1042,-207 1036,-213 1030,-213"/>
<text text-anchor="start" x="832" y="-196.2" font-family="Helvetica,sans-Serif" font-weight="bold" font-size="11.00">ToolCallHandler [1]</text>
<text text-anchor="start" x="808" y="-175.2" font-family="Helvetica,sans-Serif" font-size="11.00">tool:pre | tool:post | tool:error</text>
<text text-anchor="start" x="752.5" y="-155.2" font-family="Helvetica,sans-Serif" font-size="11.00">Node: :ToolCall (session_id__tool_call__tool_call_id)</text>
<text text-anchor="start" x="787.5" y="-135.2" font-family="Helvetica,sans-Serif" font-size="11.00">Edges: HAS_TOOL_CALL / HAS_EVENT</text>
<text text-anchor="start" x="775.5" y="-115.2" font-family="Helvetica,sans-Serif" font-size="11.00">Correlates: pre→post/error via tool_call_id</text>
</g>
<!-- enrichers_label&#45;&gt;ToolCallHandler -->
<g id="edge4" class="edge">
<title>enrichers_label&#45;&gt;ToolCallHandler</title>
<path fill="none" stroke="black" d="M654.06,-335C756.88,-335 890.5,-335 890.5,-335 890.5,-335 890.5,-223.03 890.5,-223.03"/>
<polygon fill="black" stroke="black" points="894,-223.03 890.5,-213.03 887,-223.03 894,-223.03"/>
</g>
<!-- FutureHandler -->
<g id="node6" class="node">
<title>FutureHandler</title>
<path fill="#fafafa" stroke="#aaaaaa" stroke-dasharray="5,2" d="M967,-36C967,-36 814,-36 814,-36 808,-36 802,-30 802,-24 802,-24 802,-12 802,-12 802,-6 808,0 814,0 814,0 967,0 967,0 973,0 979,-6 979,-12 979,-12 979,-24 979,-24 979,-30 973,-36 967,-36"/>
<text text-anchor="middle" x="890.5" y="-21.2" font-family="Helvetica,sans-Serif" font-size="11.00" fill="#aaaaaa">FutureHandler [N]</text>
<text text-anchor="middle" x="890.5" y="-9.2" font-family="Helvetica,sans-Serif" font-size="11.00" fill="#aaaaaa">u2026 extension point u2026</text>
</g>
<!-- ToolCallHandler&#45;&gt;FutureHandler -->
<g id="edge5" class="edge">
<title>ToolCallHandler&#45;&gt;FutureHandler</title>
<path fill="none" stroke="#aaaaaa" stroke-dasharray="5,2" d="M890.5,-102.67C890.5,-102.67 890.5,-46.07 890.5,-46.07"/>
<polygon fill="#aaaaaa" stroke="#aaaaaa" points="894,-46.07 890.5,-36.07 887,-46.07 894,-46.07"/>
</g>
</g>
</svg>
