<?xml version="1.0" encoding="UTF-8" standalone="no"?>
<!DOCTYPE svg PUBLIC "-//W3C//DTD SVG 1.1//EN"
 "http://www.w3.org/Graphics/SVG/1.1/DTD/svg11.dtd">
<!-- Generated by graphviz version 2.43.0 (0)
 -->
<!-- Title: graph_model Pages: 1 -->
<svg width="3115pt" height="868pt"
 viewBox="0.00 0.00 3115.00 867.70" xmlns="http://www.w3.org/2000/svg" xmlns:xlink="http://www.w3.org/1999/xlink">
<g id="graph0" class="graph" transform="scale(1 1) rotate(0) translate(4 863.7)">
<title>graph_model</title>
<polygon fill="white" stroke="transparent" points="-4,4 -4,-863.7 3111,-863.7 3111,4 -4,4"/>
<text text-anchor="middle" x="1553.5" y="-846.9" font-family="Helvetica,sans-Serif" font-size="11.00">Neo4j Property Graph Schema</text>
<text text-anchor="middle" x="1553.5" y="-834.9" font-family="Helvetica,sans-Serif" font-size="11.00">(context_intelligence — all node/label/edge types)</text>
<g id="clust1" class="cluster">
<title>cluster_sessions</title>
<polygon fill="#e3f2fd" stroke="#1565c0" stroke-width="2" points="8,-336.7 8,-541.7 1820.5,-541.7 1820.5,-336.7 8,-336.7"/>
<text text-anchor="middle" x="914.25" y="-528.1" font-family="Helvetica,sans-Serif" font-weight="bold" font-size="12.00">Session Nodes</text>
</g>
<g id="clust2" class="cluster">
<title>cluster_events</title>
<polygon fill="#e8f5e9" stroke="#2e7d32" stroke-width="2" points="2194,-117.7 2194,-325.7 3099,-325.7 3099,-117.7 2194,-117.7"/>
<text text-anchor="middle" x="2646.5" y="-312.1" font-family="Helvetica,sans-Serif" font-weight="bold" font-size="12.00">Event Nodes</text>
</g>
<g id="clust3" class="cluster">
<title>cluster_toolcall</title>
<polygon fill="#fff3e0" stroke="#e65100" stroke-width="2" points="1041,-109.7 1041,-184.7 1921,-184.7 1921,-109.7 1041,-109.7"/>
<text text-anchor="middle" x="1481" y="-171.1" font-family="Helvetica,sans-Serif" font-weight="bold" font-size="12.00">ToolCall Nodes</text>
</g>
<!-- RootSession -->
<g id="node1" class="node">
<title>RootSession</title>
<polygon fill="#bbdefb" stroke="black" points="16,-368.7 16,-404.7 820,-404.7 820,-368.7 16,-368.7"/>
<text text-anchor="middle" x="84.5" y="-383.9" font-family="Helvetica,sans-Serif" font-size="11.00">:RootSession :Session</text>
<polyline fill="none" stroke="black" points="153,-368.7 153,-404.7 "/>
<text text-anchor="middle" x="222.5" y="-383.9" font-family="Helvetica,sans-Serif" font-size="11.00">node_id: session UUID</text>
<polyline fill="none" stroke="black" points="292,-368.7 292,-404.7 "/>
<text text-anchor="middle" x="349" y="-383.9" font-family="Helvetica,sans-Serif" font-size="11.00">workspace: string</text>
<polyline fill="none" stroke="black" points="406,-368.7 406,-404.7 "/>
<text text-anchor="middle" x="471" y="-383.9" font-family="Helvetica,sans-Serif" font-size="11.00">started_at: ISO 8601</text>
<polyline fill="none" stroke="black" points="536,-368.7 536,-404.7 "/>
<text text-anchor="middle" x="623" y="-383.9" font-family="Helvetica,sans-Serif" font-size="11.00">ended_at: ISO 8601 (on end)</text>
<polyline fill="none" stroke="black" points="710,-368.7 710,-404.7 "/>
<text text-anchor="middle" x="765" y="-383.9" font-family="Helvetica,sans-Serif" font-size="11.00">status: &quot;running&quot;</text>
</g>
<!-- SubSession -->
<g id="node2" class="node">
<title>SubSession</title>
<polygon fill="#bbdefb" stroke="black" points="1161.5,-373.7 1161.5,-409.7 1800.5,-409.7 1800.5,-373.7 1161.5,-373.7"/>
<text text-anchor="middle" x="1227.5" y="-388.9" font-family="Helvetica,sans-Serif" font-size="11.00">:SubSession :Session</text>
<polyline fill="none" stroke="black" points="1293.5,-373.7 1293.5,-409.7 "/>
<text text-anchor="middle" x="1363" y="-388.9" font-family="Helvetica,sans-Serif" font-size="11.00">node_id: session UUID</text>
<polyline fill="none" stroke="black" points="1432.5,-373.7 1432.5,-409.7 "/>
<text text-anchor="middle" x="1489.5" y="-388.9" font-family="Helvetica,sans-Serif" font-size="11.00">workspace: string</text>
<polyline fill="none" stroke="black" points="1546.5,-373.7 1546.5,-409.7 "/>
<text text-anchor="middle" x="1611.5" y="-388.9" font-family="Helvetica,sans-Serif" font-size="11.00">started_at: ISO 8601</text>
<polyline fill="none" stroke="black" points="1676.5,-373.7 1676.5,-409.7 "/>
<text text-anchor="middle" x="1738.5" y="-388.9" font-family="Helvetica,sans-Serif" font-size="11.00">ended_at: ISO 8601</text>
</g>
<!-- RootSession&#45;&gt;SubSession -->
<g id="edge1" class="edge">
<title>RootSession&#45;&gt;SubSession</title>
<path fill="none" stroke="#1565c0" stroke-width="2" d="M820.14,-369.65C901.38,-370.55 1003.26,-373.65 1151.22,-379.08"/>
<polygon fill="#1565c0" stroke="#1565c0" stroke-width="2" points="1151.37,-382.59 1161.49,-379.46 1151.62,-375.59 1151.37,-382.59"/>
<text text-anchor="middle" x="934.5" y="-423.7" font-family="Helvetica,sans-Serif" font-size="10.00" fill="#1565c0">SUBSESSION_OF</text>
<text text-anchor="middle" x="934.5" y="-412.7" font-family="Helvetica,sans-Serif" font-size="10.00" fill="#1565c0">(PARENTu2192CHILD)</text>
</g>
<!-- ForkedSession -->
<g id="node3" class="node">
<title>ForkedSession</title>
<polygon fill="#ce93d8" stroke="black" points="1149.5,-475.7 1149.5,-511.7 1812.5,-511.7 1812.5,-475.7 1149.5,-475.7"/>
<text text-anchor="middle" x="1258.5" y="-490.9" font-family="Helvetica,sans-Serif" font-size="11.00">:ForkedSession :SubSession :Session</text>
<polyline fill="none" stroke="black" points="1367.5,-475.7 1367.5,-511.7 "/>
<text text-anchor="middle" x="1451.5" y="-490.9" font-family="Helvetica,sans-Serif" font-size="11.00">node_id: child session UUID</text>
<polyline fill="none" stroke="black" points="1535.5,-475.7 1535.5,-511.7 "/>
<text text-anchor="middle" x="1609" y="-490.9" font-family="Helvetica,sans-Serif" font-size="11.00">workspace: may be null</text>
<polyline fill="none" stroke="black" points="1682.5,-475.7 1682.5,-511.7 "/>
<text text-anchor="middle" x="1747.5" y="-490.9" font-family="Helvetica,sans-Serif" font-size="11.00">started_at: ISO 8601</text>
</g>
<!-- RootSession&#45;&gt;ForkedSession -->
<g id="edge2" class="edge">
<title>RootSession&#45;&gt;ForkedSession</title>
<path fill="none" stroke="#7b1fa2" stroke-width="2" d="M547.11,-404.75C726.24,-429.25 823.53,-438.65 1255.08,-474.82"/>
<polygon fill="#7b1fa2" stroke="#7b1fa2" stroke-width="2" points="1255.08,-478.34 1265.34,-475.68 1255.67,-471.36 1255.08,-478.34"/>
<text text-anchor="middle" x="934.5" y="-504.7" font-family="Helvetica,sans-Serif" font-size="10.00" fill="#7b1fa2">SUBSESSION_OF</text>
</g>
<!-- EventNode -->
<g id="node4" class="node">
<title>EventNode</title>
<polygon fill="#a5d6a7" stroke="black" points="2202,-259.7 2202,-295.7 3091,-295.7 3091,-259.7 2202,-259.7"/>
<text text-anchor="middle" x="2287" y="-274.9" font-family="Helvetica,sans-Serif" font-size="11.00">:FullPascal :Category :Event</text>
<polyline fill="none" stroke="black" points="2372,-259.7 2372,-295.7 "/>
<text text-anchor="middle" x="2519" y="-274.9" font-family="Helvetica,sans-Serif" font-size="11.00">node_id: session__event__epoch_ms[__tool_call_id]</text>
<polyline fill="none" stroke="black" points="2666,-259.7 2666,-295.7 "/>
<text text-anchor="middle" x="2727.5" y="-274.9" font-family="Helvetica,sans-Serif" font-size="11.00">event_name: string</text>
<polyline fill="none" stroke="black" points="2789,-259.7 2789,-295.7 "/>
<text text-anchor="middle" x="2858" y="-274.9" font-family="Helvetica,sans-Serif" font-size="11.00">occurred_at: ISO 8601</text>
<polyline fill="none" stroke="black" points="2927,-259.7 2927,-295.7 "/>
<text text-anchor="middle" x="3009" y="-274.9" font-family="Helvetica,sans-Serif" font-size="11.00">data: JSON (with blob refs)</text>
</g>
<!-- RootSession&#45;&gt;EventNode -->
<g id="edge3" class="edge">
<title>RootSession&#45;&gt;EventNode</title>
<path fill="none" stroke="#2e7d32" stroke-width="1.5" d="M456.13,-368.61C1308.45,35.63 1448.76,93.88 2184.23,-129.92"/>
<polygon fill="#2e7d32" stroke="#2e7d32" stroke-width="1.5" points="2183.42,-133.33 2194,-132.9 2185.46,-126.64 2183.42,-133.33"/>
<text text-anchor="middle" x="1481" y="-299.7" font-family="Helvetica,sans-Serif" font-size="10.00" fill="#2e7d32">HAS_EVENT {occurred_at}</text>
<text text-anchor="middle" x="1481" y="-288.7" font-family="Helvetica,sans-Serif" font-size="10.00" fill="#2e7d32">From DefaultHandler (always)</text>
</g>
<!-- ToolCall -->
<g id="node6" class="node">
<title>ToolCall</title>
<polygon fill="#ffe0b2" stroke="black" points="1049,-118.7 1049,-154.7 1913,-154.7 1913,-118.7 1049,-118.7"/>
<text text-anchor="middle" x="1080" y="-133.9" font-family="Helvetica,sans-Serif" font-size="11.00">:ToolCall</text>
<polyline fill="none" stroke="black" points="1111,-118.7 1111,-154.7 "/>
<text text-anchor="middle" x="1235" y="-133.9" font-family="Helvetica,sans-Serif" font-size="11.00">node_id: session_id__tool_call__tool_call_id</text>
<polyline fill="none" stroke="black" points="1359,-118.7 1359,-154.7 "/>
<text text-anchor="middle" x="1415.5" y="-133.9" font-family="Helvetica,sans-Serif" font-size="11.00">tool_name: string</text>
<polyline fill="none" stroke="black" points="1472,-118.7 1472,-154.7 "/>
<text text-anchor="middle" x="1564.5" y="-133.9" font-family="Helvetica,sans-Serif" font-size="11.00">tool_call_id: string (tiebreaker)</text>
<polyline fill="none" stroke="black" points="1657,-118.7 1657,-154.7 "/>
<text text-anchor="middle" x="1729" y="-133.9" font-family="Helvetica,sans-Serif" font-size="11.00">parallel_group_id: UUID</text>
<polyline fill="none" stroke="black" points="1801,-118.7 1801,-154.7 "/>
<text text-anchor="middle" x="1857" y="-133.9" font-family="Helvetica,sans-Serif" font-size="11.00">session_id: string</text>
</g>
<!-- RootSession&#45;&gt;ToolCall -->
<g id="edge4" class="edge">
<title>RootSession&#45;&gt;ToolCall</title>
<path fill="none" stroke="#e65100" stroke-width="1.5" d="M448.4,-368.49C704.78,-215.08 755.64,-193.76 1234.44,-155.55"/>
<polygon fill="#e65100" stroke="#e65100" stroke-width="1.5" points="1235.05,-159.01 1244.75,-154.73 1234.5,-152.03 1235.05,-159.01"/>
<text text-anchor="middle" x="934.5" y="-194.7" font-family="Helvetica,sans-Serif" font-size="10.00" fill="#e65100">HAS_TOOL_CALL</text>
<text text-anchor="middle" x="934.5" y="-183.7" font-family="Helvetica,sans-Serif" font-size="10.00" fill="#e65100">{started_at, ended_at}</text>
</g>
<!-- EventExamples -->
<g id="node5" class="node">
<title>EventExamples</title>
<text text-anchor="middle" x="2646.5" y="-180.9" font-family="Helvetica,sans-Serif" font-size="11.00">Label examples:</text>
<text text-anchor="middle" x="2646.5" y="-168.9" font-family="Helvetica,sans-Serif" font-size="11.00">tool:pre u2192 :ToolPre :Tool :Event</text>
<text text-anchor="middle" x="2646.5" y="-156.9" font-family="Helvetica,sans-Serif" font-size="11.00">session:start u2192 :SessionStart :Session :Event</text>
<text text-anchor="middle" x="2646.5" y="-144.9" font-family="Helvetica,sans-Serif" font-size="11.00">context:compaction u2192 :ContextCompaction :Context :Event</text>
<text text-anchor="middle" x="2646.5" y="-132.9" font-family="Helvetica,sans-Serif" font-size="11.00">delegate:agent_spawned u2192 :DelegateAgentSpawned :Delegate :Event</text>
</g>
<!-- ToolCall&#45;&gt;EventNode -->
<g id="edge5" class="edge">
<title>ToolCall&#45;&gt;EventNode</title>
<path fill="none" stroke="#e65100" stroke-width="1.5" stroke-dasharray="5,2" d="M1913.26,-119.74C2270.93,-111.11 2349.85,-138.18 2598.88,-255.24"/>
<polygon fill="#e65100" stroke="#e65100" stroke-width="1.5" points="2597.65,-258.53 2608.19,-259.62 2600.63,-252.2 2597.65,-258.53"/>
<text text-anchor="middle" x="2057.5" y="-195.7" font-family="Helvetica,sans-Serif" font-size="10.00" fill="#e65100">HAS_EVENT {occurred_at}</text>
<text text-anchor="middle" x="2057.5" y="-184.7" font-family="Helvetica,sans-Serif" font-size="10.00" fill="#e65100">From ToolCallHandler (additionally)</text>
</g>
<!-- note_dual_edge -->
<g id="node7" class="node">
<title>note_dual_edge</title>
<polygon fill="#fff9c4" stroke="black" points="621,-605.7 215,-605.7 215,-549.7 621,-549.7 621,-605.7"/>
<text text-anchor="middle" x="418" y="-592.9" font-family="Helvetica,sans-Serif" font-size="11.00">u26a0 Dual HAS_EVENT edges on tool events</text>
<text text-anchor="middle" x="418" y="-580.9" font-family="Helvetica,sans-Serif" font-size="11.00">(Session)&#45;[:HAS_EVENT]&#45;&gt;(Event) &#160;u2014 DefaultHandler (always)</text>
<text text-anchor="middle" x="418" y="-568.9" font-family="Helvetica,sans-Serif" font-size="11.00">(ToolCall)&#45;[:HAS_EVENT]&#45;&gt;(Event) &#160;u2014 ToolCallHandler (additionally)</text>
<text text-anchor="middle" x="418" y="-556.9" font-family="Helvetica,sans-Serif" font-size="11.00">Both edges coexist; enrichers are ADDITIVE</text>
</g>
<!-- note_tiebreaker -->
<g id="node8" class="node">
<title>note_tiebreaker</title>
<polygon fill="#fff9c4" stroke="black" points="567,-726.7 269,-726.7 269,-670.7 567,-670.7 567,-726.7"/>
<text text-anchor="middle" x="418" y="-713.9" font-family="Helvetica,sans-Serif" font-size="11.00">u2139 ToolCall node_id has NO timestamp</text>
<text text-anchor="middle" x="418" y="-701.9" font-family="Helvetica,sans-Serif" font-size="11.00">pre / post / error share the same :ToolCall node</text>
<text text-anchor="middle" x="418" y="-689.9" font-family="Helvetica,sans-Serif" font-size="11.00">Event node_id appends tool_call_id as tiebreaker</text>
<text text-anchor="middle" x="418" y="-677.9" font-family="Helvetica,sans-Serif" font-size="11.00">to distinguish tool events with the same epoch_ms</text>
</g>
<!-- note_direction -->
<g id="node9" class="node">
<title>note_direction</title>
<polygon fill="#ffccbc" stroke="black" stroke-width="2" points="578,-827.7 258,-827.7 258,-791.7 578,-791.7 578,-827.7"/>
<text text-anchor="middle" x="418" y="-812.9" font-family="Helvetica,sans-Serif" font-size="11.00">u26a0 SUBSESSION_OF direction: PARENT u2192 CHILD</text>
<text text-anchor="middle" x="418" y="-800.9" font-family="Helvetica,sans-Serif" font-size="11.00">(opposite of old design u2014 confirm before querying)</text>
</g>
</g>
</svg>
