<?xml version="1.0" encoding="UTF-8" standalone="no"?>
<!DOCTYPE svg PUBLIC "-//W3C//DTD SVG 1.1//EN"
 "http://www.w3.org/Graphics/SVG/1.1/DTD/svg11.dtd">
<!-- Generated by graphviz version 2.43.0 (0)
 -->
<!-- Title: graph_model Pages: 1 -->
<svg width="3777pt" height="858pt"
 viewBox="0.00 0.00 3777.00 858.00" xmlns="http://www.w3.org/2000/svg" xmlns:xlink="http://www.w3.org/1999/xlink">
<g id="graph0" class="graph" transform="scale(1 1) rotate(0) translate(4 854)">
<title>graph_model</title>
<polygon fill="white" stroke="transparent" points="-4,4 -4,-854 3773,-854 3773,4 -4,4"/>
<text text-anchor="middle" x="1884.5" y="-837.2" font-family="Helvetica,sans-Serif" font-size="11.00">Neo4j Property Graph Schema</text>
<text text-anchor="middle" x="1884.5" y="-825.2" font-family="Helvetica,sans-Serif" font-size="11.00">(context_intelligence — all node/label/edge types)</text>
<g id="clust1" class="cluster">
<title>cluster_sessions</title>
<polygon fill="#e3f2fd" stroke="#1565c0" stroke-width="2" points="8,-284 8,-500 1863,-500 1863,-284 8,-284"/>
<text text-anchor="middle" x="935.5" y="-486.4" font-family="Helvetica,sans-Serif" font-weight="bold" font-size="12.00">Session Nodes</text>
</g>
<g id="clust2" class="cluster">
<title>cluster_events</title>
<polygon fill="#e8f5e9" stroke="#2e7d32" stroke-width="2" points="2194,-8 2194,-240 3761,-240 3761,-8 2194,-8"/>
<text text-anchor="middle" x="2977.5" y="-226.4" font-family="Helvetica,sans-Serif" font-weight="bold" font-size="12.00">Event Nodes</text>
</g>
<g id="clust3" class="cluster">
<title>cluster_toolcall</title>
<polygon fill="#fff3e0" stroke="#e65100" stroke-width="2" points="1041,-68 1041,-143 1921,-143 1921,-68 1041,-68"/>
<text text-anchor="middle" x="1481" y="-129.4" font-family="Helvetica,sans-Serif" font-weight="bold" font-size="12.00">ToolCall Nodes</text>
</g>
<!-- RootSession -->
<g id="node1" class="node">
<title>RootSession</title>
<polygon fill="#bbdefb" stroke="black" points="16,-316 16,-352 820,-352 820,-316 16,-316"/>
<text text-anchor="middle" x="84.5" y="-331.2" font-family="Helvetica,sans-Serif" font-size="11.00">:RootSession :Session</text>
<polyline fill="none" stroke="black" points="153,-316 153,-352 "/>
<text text-anchor="middle" x="222.5" y="-331.2" font-family="Helvetica,sans-Serif" font-size="11.00">node_id: session UUID</text>
<polyline fill="none" stroke="black" points="292,-316 292,-352 "/>
<text text-anchor="middle" x="349" y="-331.2" font-family="Helvetica,sans-Serif" font-size="11.00">workspace: string</text>
<polyline fill="none" stroke="black" points="406,-316 406,-352 "/>
<text text-anchor="middle" x="471" y="-331.2" font-family="Helvetica,sans-Serif" font-size="11.00">started_at: ISO 8601</text>
<polyline fill="none" stroke="black" points="536,-316 536,-352 "/>
<text text-anchor="middle" x="623" y="-331.2" font-family="Helvetica,sans-Serif" font-size="11.00">ended_at: ISO 8601 (on end)</text>
<polyline fill="none" stroke="black" points="710,-316 710,-352 "/>
<text text-anchor="middle" x="765" y="-331.2" font-family="Helvetica,sans-Serif" font-size="11.00">status: &quot;running&quot;</text>
</g>
<!-- SubSession -->
<g id="node2" class="node">
<title>SubSession</title>
<polygon fill="#bbdefb" stroke="black" points="1161.5,-332 1161.5,-368 1800.5,-368 1800.5,-332 1161.5,-332"/>
<text text-anchor="middle" x="1227.5" y="-347.2" font-family="Helvetica,sans-Serif" font-size="11.00">:SubSession :Session</text>
<polyline fill="none" stroke="black" points="1293.5,-332 1293.5,-368 "/>
<text text-anchor="middle" x="1363" y="-347.2" font-family="Helvetica,sans-Serif" font-size="11.00">node_id: session UUID</text>
<polyline fill="none" stroke="black" points="1432.5,-332 1432.5,-368 "/>
<text text-anchor="middle" x="1489.5" y="-347.2" font-family="Helvetica,sans-Serif" font-size="11.00">workspace: string</text>
<polyline fill="none" stroke="black" points="1546.5,-332 1546.5,-368 "/>
<text text-anchor="middle" x="1611.5" y="-347.2" font-family="Helvetica,sans-Serif" font-size="11.00">started_at: ISO 8601</text>
<polyline fill="none" stroke="black" points="1676.5,-332 1676.5,-368 "/>
<text text-anchor="middle" x="1738.5" y="-347.2" font-family="Helvetica,sans-Serif" font-size="11.00">ended_at: ISO 8601</text>
</g>
<!-- RootSession&#45;&gt;SubSession -->
<g id="edge1" class="edge">
<title>RootSession&#45;&gt;SubSession</title>
<path fill="none" stroke="#1565c0" stroke-width="2" d="M820.13,-331.1C901.3,-332.57 1003.17,-335.34 1150.96,-339.8"/>
<polygon fill="#1565c0" stroke="#1565c0" stroke-width="2" points="1151.12,-343.3 1161.22,-340.11 1151.33,-336.31 1151.12,-343.3"/>
<text text-anchor="middle" x="934.5" y="-371" font-family="Helvetica,sans-Serif" font-size="10.00" fill="#1565c0">SUBSESSION_OF</text>
<text text-anchor="middle" x="934.5" y="-360" font-family="Helvetica,sans-Serif" font-size="10.00" fill="#1565c0">(PARENT→CHILD)</text>
</g>
<!-- ForkedSession -->
<g id="node3" class="node">
<title>ForkedSession</title>
<polygon fill="#ce93d8" stroke="black" points="1107,-434 1107,-470 1855,-470 1855,-434 1107,-434"/>
<text text-anchor="middle" x="1181.5" y="-449.2" font-family="Helvetica,sans-Serif" font-size="11.00">:ForkedSession :Session</text>
<polyline fill="none" stroke="black" points="1256,-434 1256,-470 "/>
<text text-anchor="middle" x="1340" y="-449.2" font-family="Helvetica,sans-Serif" font-size="11.00">node_id: child session UUID</text>
<polyline fill="none" stroke="black" points="1424,-434 1424,-470 "/>
<text text-anchor="middle" x="1497.5" y="-449.2" font-family="Helvetica,sans-Serif" font-size="11.00">workspace: may be null</text>
<polyline fill="none" stroke="black" points="1571,-434 1571,-470 "/>
<text text-anchor="middle" x="1636" y="-449.2" font-family="Helvetica,sans-Serif" font-size="11.00">started_at: ISO 8601</text>
<polyline fill="none" stroke="black" points="1701,-434 1701,-470 "/>
<text text-anchor="middle" x="1778" y="-449.2" font-family="Helvetica,sans-Serif" font-size="11.00">Distinct from SubSession</text>
</g>
<!-- RootSession&#45;&gt;ForkedSession -->
<g id="edge2" class="edge">
<title>RootSession&#45;&gt;ForkedSession</title>
<path fill="none" stroke="#7b1fa2" stroke-width="2" d="M522.05,-352.01C718.08,-385.39 803.88,-394.76 1257.18,-433.14"/>
<polygon fill="#7b1fa2" stroke="#7b1fa2" stroke-width="2" points="1257.01,-436.64 1267.27,-434 1257.6,-429.67 1257.01,-436.64"/>
<text text-anchor="middle" x="934.5" y="-463" font-family="Helvetica,sans-Serif" font-size="10.00" fill="#7b1fa2">HAS_FORK</text>
<text text-anchor="middle" x="934.5" y="-452" font-family="Helvetica,sans-Serif" font-size="10.00" fill="#7b1fa2">(parent&#45;&gt;child)</text>
</g>
<!-- EventNode -->
<g id="node4" class="node">
<title>EventNode</title>
<polygon fill="#a5d6a7" stroke="black" points="2202,-174 2202,-210 3753,-210 3753,-174 2202,-174"/>
<text text-anchor="middle" x="2318.5" y="-189.2" font-family="Helvetica,sans-Serif" font-size="11.00">:FullPascalEvent :CategoryEvent :Event</text>
<polyline fill="none" stroke="black" points="2435,-174 2435,-210 "/>
<text text-anchor="middle" x="2582" y="-189.2" font-family="Helvetica,sans-Serif" font-size="11.00">node_id: session__event__epoch_ms[__tool_call_id]</text>
<polyline fill="none" stroke="black" points="2729,-174 2729,-210 "/>
<text text-anchor="middle" x="2790.5" y="-189.2" font-family="Helvetica,sans-Serif" font-size="11.00">event_name: string</text>
<polyline fill="none" stroke="black" points="2852,-174 2852,-210 "/>
<text text-anchor="middle" x="2921" y="-189.2" font-family="Helvetica,sans-Serif" font-size="11.00">occurred_at: ISO 8601</text>
<polyline fill="none" stroke="black" points="2990,-174 2990,-210 "/>
<text text-anchor="middle" x="3026.5" y="-189.2" font-family="Helvetica,sans-Serif" font-size="11.00">session_id</text>
<polyline fill="none" stroke="black" points="3063,-174 3063,-210 "/>
<text text-anchor="middle" x="3097" y="-189.2" font-family="Helvetica,sans-Serif" font-size="11.00">parent_id</text>
<polyline fill="none" stroke="black" points="3131,-174 3131,-210 "/>
<text text-anchor="middle" x="3169.5" y="-189.2" font-family="Helvetica,sans-Serif" font-size="11.00">tool_call_id</text>
<polyline fill="none" stroke="black" points="3208,-174 3208,-210 "/>
<text text-anchor="middle" x="3262.5" y="-189.2" font-family="Helvetica,sans-Serif" font-size="11.00">parallel_group_id</text>
<polyline fill="none" stroke="black" points="3317,-174 3317,-210 "/>
<text text-anchor="middle" x="3473.5" y="-189.2" font-family="Helvetica,sans-Serif" font-size="11.00">[event&#45;specific: tool_name, model, agent, prompt, ...]</text>
<polyline fill="none" stroke="black" points="3630,-174 3630,-210 "/>
<text text-anchor="middle" x="3691.5" y="-189.2" font-family="Helvetica,sans-Serif" font-size="11.00">data: full JSON blob</text>
</g>
<!-- RootSession&#45;&gt;EventNode -->
<g id="edge3" class="edge">
<title>RootSession&#45;&gt;EventNode</title>
<path fill="none" stroke="#2e7d32" stroke-width="1.5" d="M459.05,-315.88C1133.37,-18.3 1280.41,36.54 2184.01,-80.15"/>
<polygon fill="#2e7d32" stroke="#2e7d32" stroke-width="1.5" points="2183.64,-83.63 2194,-81.44 2184.53,-76.68 2183.64,-83.63"/>
<text text-anchor="middle" x="1481" y="-258" font-family="Helvetica,sans-Serif" font-size="10.00" fill="#2e7d32">HAS_EVENT {occurred_at}</text>
<text text-anchor="middle" x="1481" y="-247" font-family="Helvetica,sans-Serif" font-size="10.00" fill="#2e7d32">From DefaultHandler (always)</text>
</g>
<!-- ToolCall -->
<g id="node6" class="node">
<title>ToolCall</title>
<polygon fill="#ffe0b2" stroke="black" points="1049,-77 1049,-113 1913,-113 1913,-77 1049,-77"/>
<text text-anchor="middle" x="1080" y="-92.2" font-family="Helvetica,sans-Serif" font-size="11.00">:ToolCall</text>
<polyline fill="none" stroke="black" points="1111,-77 1111,-113 "/>
<text text-anchor="middle" x="1235" y="-92.2" font-family="Helvetica,sans-Serif" font-size="11.00">node_id: session_id__tool_call__tool_call_id</text>
<polyline fill="none" stroke="black" points="1359,-77 1359,-113 "/>
<text text-anchor="middle" x="1415.5" y="-92.2" font-family="Helvetica,sans-Serif" font-size="11.00">tool_name: string</text>
<polyline fill="none" stroke="black" points="1472,-77 1472,-113 "/>
<text text-anchor="middle" x="1564.5" y="-92.2" font-family="Helvetica,sans-Serif" font-size="11.00">tool_call_id: string (tiebreaker)</text>
<polyline fill="none" stroke="black" points="1657,-77 1657,-113 "/>
<text text-anchor="middle" x="1729" y="-92.2" font-family="Helvetica,sans-Serif" font-size="11.00">parallel_group_id: UUID</text>
<polyline fill="none" stroke="black" points="1801,-77 1801,-113 "/>
<text text-anchor="middle" x="1857" y="-92.2" font-family="Helvetica,sans-Serif" font-size="11.00">session_id: string</text>
</g>
<!-- RootSession&#45;&gt;ToolCall -->
<g id="edge4" class="edge">
<title>RootSession&#45;&gt;ToolCall</title>
<path fill="none" stroke="#e65100" stroke-width="1.5" d="M453.03,-315.98C709.93,-184.04 756.91,-169.11 1292.68,-114.1"/>
<polygon fill="#e65100" stroke="#e65100" stroke-width="1.5" points="1293.42,-117.54 1303.01,-113.04 1292.71,-110.58 1293.42,-117.54"/>
<text text-anchor="middle" x="934.5" y="-153" font-family="Helvetica,sans-Serif" font-size="10.00" fill="#e65100">HAS_TOOL_CALL</text>
<text text-anchor="middle" x="934.5" y="-142" font-family="Helvetica,sans-Serif" font-size="10.00" fill="#e65100">{started_at, ended_at}</text>
</g>
<!-- EventExamples -->
<g id="node5" class="node">
<title>EventExamples</title>
<text text-anchor="middle" x="2977.5" y="-95.2" font-family="Helvetica,sans-Serif" font-size="11.00">Label examples:</text>
<text text-anchor="middle" x="2977.5" y="-83.2" font-family="Helvetica,sans-Serif" font-size="11.00">tool:pre → :ToolPreEvent :ToolEvent :Event</text>
<text text-anchor="middle" x="2977.5" y="-71.2" font-family="Helvetica,sans-Serif" font-size="11.00">session:start → :SessionStartEvent :SessionEvent :Event</text>
<text text-anchor="middle" x="2977.5" y="-59.2" font-family="Helvetica,sans-Serif" font-size="11.00">context:compaction → :ContextCompactionEvent :ContextEvent :Event</text>
<text text-anchor="middle" x="2977.5" y="-47.2" font-family="Helvetica,sans-Serif" font-size="11.00">delegate:agent_spawned → :DelegateAgentSpawnedEvent :DelegateEvent :Event</text>
<text text-anchor="middle" x="2977.5" y="-35.2" font-family="Helvetica,sans-Serif" font-size="11.00">Lifted fields queryable directly — no JSON parsing needed</text>
<text text-anchor="middle" x="2977.5" y="-23.2" font-family="Helvetica,sans-Serif" font-size="11.00">data blob stores complete raw payload</text>
</g>
<!-- ToolCall&#45;&gt;EventNode -->
<g id="edge5" class="edge">
<title>ToolCall&#45;&gt;EventNode</title>
<path fill="none" stroke="#e65100" stroke-width="1.5" stroke-dasharray="5,2" d="M1613.29,-76.98C2438.32,34.97 2488.23,29.22 2928.43,-169.77"/>
<polygon fill="#e65100" stroke="#e65100" stroke-width="1.5" points="2927.02,-172.98 2937.58,-173.91 2929.91,-166.6 2927.02,-172.98"/>
<text text-anchor="middle" x="2057.5" y="-154" font-family="Helvetica,sans-Serif" font-size="10.00" fill="#e65100">HAS_EVENT {occurred_at}</text>
<text text-anchor="middle" x="2057.5" y="-143" font-family="Helvetica,sans-Serif" font-size="10.00" fill="#e65100">From ToolCallHandler (additionally)</text>
</g>
<!-- note_dual_edge -->
<g id="node7" class="node">
<title>note_dual_edge</title>
<polygon fill="#fff9c4" stroke="black" points="609.5,-564 226.5,-564 226.5,-508 609.5,-508 609.5,-564"/>
<text text-anchor="middle" x="418" y="-551.2" font-family="Helvetica,sans-Serif" font-size="11.00">⚠ Dual HAS_EVENT edges on tool events</text>
<text text-anchor="middle" x="418" y="-539.2" font-family="Helvetica,sans-Serif" font-size="11.00">(Session)&#45;[:HAS_EVENT]&#45;&gt;(Event) &#160;— DefaultHandler (always)</text>
<text text-anchor="middle" x="418" y="-527.2" font-family="Helvetica,sans-Serif" font-size="11.00">(ToolCall)&#45;[:HAS_EVENT]&#45;&gt;(Event) &#160;— ToolCallHandler (additionally)</text>
<text text-anchor="middle" x="418" y="-515.2" font-family="Helvetica,sans-Serif" font-size="11.00">Both edges coexist; enrichers are ADDITIVE</text>
</g>
<!-- note_tiebreaker -->
<g id="node8" class="node">
<title>note_tiebreaker</title>
<polygon fill="#fff9c4" stroke="black" points="567,-685 269,-685 269,-629 567,-629 567,-685"/>
<text text-anchor="middle" x="418" y="-672.2" font-family="Helvetica,sans-Serif" font-size="11.00">ℹ ToolCall node_id has NO timestamp</text>
<text text-anchor="middle" x="418" y="-660.2" font-family="Helvetica,sans-Serif" font-size="11.00">pre / post / error share the same :ToolCall node</text>
<text text-anchor="middle" x="418" y="-648.2" font-family="Helvetica,sans-Serif" font-size="11.00">Event node_id appends tool_call_id as tiebreaker</text>
<text text-anchor="middle" x="418" y="-636.2" font-family="Helvetica,sans-Serif" font-size="11.00">to distinguish tool events with the same epoch_ms</text>
</g>
<!-- note_direction -->
<g id="node9" class="node">
<title>note_direction</title>
<polygon fill="#ffccbc" stroke="black" stroke-width="2" points="560.5,-818 275.5,-818 275.5,-750 560.5,-750 560.5,-818"/>
<text text-anchor="middle" x="418" y="-805.2" font-family="Helvetica,sans-Serif" font-size="11.00">⚠ Session edge types differ by origin:</text>
<text text-anchor="middle" x="418" y="-793.2" font-family="Helvetica,sans-Serif" font-size="11.00">SUBSESSION_OF: session:start with parent_id</text>
<text text-anchor="middle" x="418" y="-781.2" font-family="Helvetica,sans-Serif" font-size="11.00">HAS_FORK: session:fork</text>
<text text-anchor="middle" x="418" y="-769.2" font-family="Helvetica,sans-Serif" font-size="11.00">Both are parent→child direction.</text>
<text text-anchor="middle" x="418" y="-757.2" font-family="Helvetica,sans-Serif" font-size="11.00">ForkedSession does NOT carry SubSession label.</text>
</g>
</g>
</svg>
