<?xml version="1.0" encoding="UTF-8" standalone="no"?>
<!DOCTYPE svg PUBLIC "-//W3C//DTD SVG 1.1//EN"
 "http://www.w3.org/Graphics/SVG/1.1/DTD/svg11.dtd">
<!-- Generated by graphviz version 2.43.0 (0)
 -->
<!-- Title: default_handler_flow Pages: 1 -->
<svg width="865pt" height="1105pt"
 viewBox="0.00 0.00 864.50 1105.38" xmlns="http://www.w3.org/2000/svg" xmlns:xlink="http://www.w3.org/1999/xlink">
<g id="graph0" class="graph" transform="scale(1 1) rotate(0) translate(4 1101.38)">
<title>default_handler_flow</title>
<polygon fill="white" stroke="transparent" points="-4,4 -4,-1101.38 860.5,-1101.38 860.5,4 -4,4"/>
<text text-anchor="middle" x="428.25" y="-1084.58" font-family="Helvetica,sans-Serif" font-size="11.00">DefaultHandler u2014 Internal 5&#45;Stage Event Node Creation Pipeline</text>
<g id="clust1" class="cluster">
<title>cluster_legend</title>
<polygon fill="none" stroke="#aaaaaa" stroke-dasharray="5,2" points="552.5,-843.25 552.5,-1069.38 848.5,-1069.38 848.5,-843.25 552.5,-843.25"/>
<text text-anchor="middle" x="700.5" y="-1057.38" font-family="Helvetica,sans-Serif" font-size="10.00">Legend</text>
</g>
<!-- input -->
<g id="node1" class="node">
<title>input</title>
<ellipse fill="#e3f2fd" stroke="black" cx="307.5" cy="-1021.88" rx="113.69" ry="22.76"/>
<text text-anchor="middle" x="307.5" y="-1025.08" font-family="Helvetica,sans-Serif" font-size="11.00">event: dict</text>
<text text-anchor="middle" x="307.5" y="-1013.08" font-family="Helvetica,sans-Serif" font-size="11.00">(raw event from recorder)</text>
</g>
<!-- stage1 -->
<g id="node2" class="node">
<title>stage1</title>
<path fill="#f5f5f5" stroke="black" d="M532.5,-934.25C532.5,-934.25 82.5,-934.25 82.5,-934.25 76.5,-934.25 70.5,-928.25 70.5,-922.25 70.5,-922.25 70.5,-816.25 70.5,-816.25 70.5,-810.25 76.5,-804.25 82.5,-804.25 82.5,-804.25 532.5,-804.25 532.5,-804.25 538.5,-804.25 544.5,-810.25 544.5,-816.25 544.5,-816.25 544.5,-922.25 544.5,-922.25 544.5,-928.25 538.5,-934.25 532.5,-934.25"/>
<text text-anchor="start" x="250" y="-917.45" font-family="Helvetica,sans-Serif" font-weight="bold" font-size="11.00">① Label Derivation</text>
<text text-anchor="start" x="148" y="-896.45" font-family="Helvetica,sans-Serif" font-size="11.00">Split on &quot;:&quot; and &quot;_&quot; → PascalCase each part + Event suffix</text>
<text text-anchor="start" x="191" y="-877.45" font-family="Helvetica,sans-Serif" font-style="italic" font-size="11.00">tool:pre → :ToolPreEvent :ToolEvent :Event</text>
<text text-anchor="start" x="151" y="-857.45" font-family="Helvetica,sans-Serif" font-style="italic" font-size="11.00">session:start → :SessionStartEvent :SessionEvent :Event</text>
<text text-anchor="start" x="83.5" y="-837.45" font-family="Helvetica,sans-Serif" font-style="italic" font-size="11.00">delegate:agent_spawned → :DelegateAgentSpawnedEvent :DelegateEvent :Event</text>
<text text-anchor="start" x="159" y="-817.45" font-family="Helvetica,sans-Serif" font-weight="bold" font-size="11.00">Yields: [FullPascalEvent, CategoryEvent, Event]</text>
</g>
<!-- input&#45;&gt;stage1 -->
<g id="edge1" class="edge">
<title>input&#45;&gt;stage1</title>
<path fill="none" stroke="black" d="M307.5,-999.03C307.5,-999.03 307.5,-944.56 307.5,-944.56"/>
<polygon fill="black" stroke="black" points="311,-944.56 307.5,-934.56 304,-944.56 311,-944.56"/>
</g>
<!-- stage2 -->
<g id="node3" class="node">
<title>stage2</title>
<path fill="#f5f5f5" stroke="black" d="M440.5,-739.25C440.5,-739.25 174.5,-739.25 174.5,-739.25 168.5,-739.25 162.5,-733.25 162.5,-727.25 162.5,-727.25 162.5,-661.25 162.5,-661.25 162.5,-655.25 168.5,-649.25 174.5,-649.25 174.5,-649.25 440.5,-649.25 440.5,-649.25 446.5,-649.25 452.5,-655.25 452.5,-661.25 452.5,-661.25 452.5,-727.25 452.5,-727.25 452.5,-733.25 446.5,-739.25 440.5,-739.25"/>
<text text-anchor="start" x="236.5" y="-722.45" font-family="Helvetica,sans-Serif" font-weight="bold" font-size="11.00">② node_id Computation</text>
<text text-anchor="start" x="183" y="-701.45" font-family="Helvetica,sans-Serif" font-size="11.00">make_node_id(session_id, event, timestamp)</text>
<text text-anchor="start" x="197" y="-681.45" font-family="Helvetica,sans-Serif" font-size="11.00">+ tool_call_id tiebreaker (when present)</text>
<text text-anchor="start" x="175.5" y="-662.45" font-family="Helvetica,sans-Serif" font-style="italic" font-size="11.00">e.g. &quot;sess__tool_pre__1700000000000__abc123&quot;</text>
</g>
<!-- stage1&#45;&gt;stage2 -->
<g id="edge2" class="edge">
<title>stage1&#45;&gt;stage2</title>
<path fill="none" stroke="black" d="M307.5,-804.09C307.5,-804.09 307.5,-749.29 307.5,-749.29"/>
<polygon fill="black" stroke="black" points="311,-749.29 307.5,-739.29 304,-749.29 311,-749.29"/>
</g>
<!-- stage3 -->
<g id="node4" class="node">
<title>stage3</title>
<path fill="#c8e6c9" stroke="black" stroke-width="2.5" d="M553.5,-584.25C553.5,-584.25 61.5,-584.25 61.5,-584.25 55.5,-584.25 49.5,-578.25 49.5,-572.25 49.5,-572.25 49.5,-412.25 49.5,-412.25 49.5,-406.25 55.5,-400.25 61.5,-400.25 61.5,-400.25 553.5,-400.25 553.5,-400.25 559.5,-400.25 565.5,-406.25 565.5,-412.25 565.5,-412.25 565.5,-572.25 565.5,-572.25 565.5,-578.25 559.5,-584.25 553.5,-584.25"/>
<polygon fill="#a5d6a7" stroke="transparent" points="57.5,-558.25 57.5,-580.25 557.5,-580.25 557.5,-558.25 57.5,-558.25"/>
<polygon fill="none" stroke="black" points="57.5,-558.25 57.5,-580.25 557.5,-580.25 557.5,-558.25 57.5,-558.25"/>
<text text-anchor="start" x="164.5" y="-567.45" font-family="Helvetica,sans-Serif" font-weight="bold" font-size="11.00">③ Field Lifting — ALL matching FieldLifters fire</text>
<polygon fill="#e8f5e9" stroke="transparent" points="57.5,-536.25 57.5,-558.25 231.5,-558.25 231.5,-536.25 57.5,-536.25"/>
<polygon fill="none" stroke="black" points="57.5,-536.25 57.5,-558.25 231.5,-558.25 231.5,-536.25 57.5,-536.25"/>
<text text-anchor="start" x="97.5" y="-545.45" font-family="Helvetica,sans-Serif" font-weight="bold" font-size="11.00">Lifter (pattern)</text>
<polygon fill="#e8f5e9" stroke="transparent" points="231.5,-536.25 231.5,-558.25 557.5,-558.25 557.5,-536.25 231.5,-536.25"/>
<polygon fill="none" stroke="black" points="231.5,-536.25 231.5,-558.25 557.5,-558.25 557.5,-536.25 231.5,-536.25"/>
<text text-anchor="start" x="356.5" y="-545.45" font-family="Helvetica,sans-Serif" font-weight="bold" font-size="11.00">Fields Lifted</text>
<polygon fill="none" stroke="black" points="57.5,-514.25 57.5,-536.25 231.5,-536.25 231.5,-514.25 57.5,-514.25"/>
<text text-anchor="start" x="90" y="-522.45" font-family="Helvetica,sans-Serif" font-weight="bold" font-size="11.00">UniversalLifter(*)</text>
<polygon fill="none" stroke="black" points="231.5,-514.25 231.5,-536.25 557.5,-536.25 557.5,-514.25 231.5,-514.25"/>
<text text-anchor="start" x="236.5" y="-522.45" font-family="Helvetica,sans-Serif" font-weight="bold" font-size="11.00">session_id, parent_id, tool_call_id, parallel_group_id</text>
<polygon fill="none" stroke="black" points="57.5,-492.25 57.5,-514.25 231.5,-514.25 231.5,-492.25 57.5,-492.25"/>
<text text-anchor="start" x="70" y="-500.45" font-family="Helvetica,sans-Serif" font-weight="bold" font-size="11.00">SessionLifter(session:*)</text>
<polygon fill="none" stroke="black" points="231.5,-492.25 231.5,-514.25 557.5,-514.25 557.5,-492.25 231.5,-492.25"/>
<text text-anchor="start" x="250.5" y="-500.45" font-family="Helvetica,sans-Serif" font-weight="bold" font-size="11.00">parent, agent_name, recipe_name, recipe_step</text>
<polygon fill="none" stroke="black" points="57.5,-470.25 57.5,-492.25 231.5,-492.25 231.5,-470.25 57.5,-470.25"/>
<text text-anchor="start" x="93" y="-478.45" font-family="Helvetica,sans-Serif" font-weight="bold" font-size="11.00">ToolLifter(tool:*)</text>
<polygon fill="none" stroke="black" points="231.5,-470.25 231.5,-492.25 557.5,-492.25 557.5,-470.25 231.5,-470.25"/>
<text text-anchor="start" x="328" y="-478.45" font-family="Helvetica,sans-Serif" font-weight="bold" font-size="11.00">tool_name, tool_input</text>
<polygon fill="none" stroke="black" points="57.5,-448.25 57.5,-470.25 231.5,-470.25 231.5,-448.25 57.5,-448.25"/>
<text text-anchor="start" x="62.5" y="-456.45" font-family="Helvetica,sans-Serif" font-weight="bold" font-size="11.00">DelegateLifter(delegate:*)</text>
<polygon fill="none" stroke="black" points="231.5,-448.25 231.5,-470.25 557.5,-470.25 557.5,-448.25 231.5,-448.25"/>
<text text-anchor="start" x="269" y="-456.45" font-family="Helvetica,sans-Serif" font-weight="bold" font-size="11.00">agent, sub_session_id, parent_session_id</text>
<polygon fill="none" stroke="black" points="57.5,-426.25 57.5,-448.25 231.5,-448.25 231.5,-426.25 57.5,-426.25"/>
<text text-anchor="start" x="97" y="-434.45" font-family="Helvetica,sans-Serif" font-weight="bold" font-size="11.00">LlmLifter(llm:*)</text>
<polygon fill="none" stroke="black" points="231.5,-426.25 231.5,-448.25 557.5,-448.25 557.5,-426.25 231.5,-426.25"/>
<text text-anchor="start" x="345.5" y="-434.45" font-family="Helvetica,sans-Serif" font-weight="bold" font-size="11.00">model, provider</text>
<polygon fill="none" stroke="black" points="57.5,-404.25 57.5,-426.25 231.5,-426.25 231.5,-404.25 57.5,-404.25"/>
<text text-anchor="start" x="72.5" y="-412.45" font-family="Helvetica,sans-Serif" font-weight="bold" font-size="11.00">PromptLifter(prompt:*)</text>
<polygon fill="none" stroke="black" points="231.5,-404.25 231.5,-426.25 557.5,-426.25 557.5,-404.25 231.5,-404.25"/>
<text text-anchor="start" x="312.5" y="-412.45" font-family="Helvetica,sans-Serif" font-weight="bold" font-size="11.00">prompt, response_preview</text>
</g>
<!-- stage2&#45;&gt;stage3 -->
<g id="edge3" class="edge">
<title>stage2&#45;&gt;stage3</title>
<path fill="none" stroke="black" d="M307.5,-649.17C307.5,-649.17 307.5,-594.35 307.5,-594.35"/>
<polygon fill="black" stroke="black" points="311,-594.35 307.5,-584.35 304,-594.35 311,-594.35"/>
</g>
<!-- stage4 -->
<g id="node5" class="node">
<title>stage4</title>
<path fill="#f5f5f5" stroke="black" d="M254.5,-335.25C254.5,-335.25 38.5,-335.25 38.5,-335.25 32.5,-335.25 26.5,-329.25 26.5,-323.25 26.5,-323.25 26.5,-257.25 26.5,-257.25 26.5,-251.25 32.5,-245.25 38.5,-245.25 38.5,-245.25 254.5,-245.25 254.5,-245.25 260.5,-245.25 266.5,-251.25 266.5,-257.25 266.5,-257.25 266.5,-323.25 266.5,-323.25 266.5,-329.25 260.5,-335.25 254.5,-335.25"/>
<text text-anchor="start" x="83" y="-318.45" font-family="Helvetica,sans-Serif" font-weight="bold" font-size="11.00">④ Node Construction</text>
<text text-anchor="start" x="49.5" y="-297.45" font-family="Helvetica,sans-Serif" font-size="11.00">{ labels, event_name, occurred_at,</text>
<text text-anchor="start" x="84.5" y="-277.45" font-family="Helvetica,sans-Serif" font-size="11.00">  **lifted, data: JSON }</text>
<text text-anchor="start" x="39.5" y="-258.45" font-family="Helvetica,sans-Serif" font-style="italic" font-size="11.00">MERGE on node_id → upsert into Neo4j</text>
</g>
<!-- stage3&#45;&gt;stage4 -->
<g id="edge4" class="edge">
<title>stage3&#45;&gt;stage4</title>
<path fill="none" stroke="black" d="M158,-400.12C158,-400.12 158,-345.42 158,-345.42"/>
<polygon fill="black" stroke="black" points="161.5,-345.42 158,-335.42 154.5,-345.42 161.5,-345.42"/>
</g>
<!-- collision_note -->
<g id="node8" class="node">
<title>collision_note</title>
<polygon fill="#fff9c4" stroke="black" points="612,-324.25 325,-324.25 325,-256.25 612,-256.25 612,-324.25"/>
<text text-anchor="middle" x="468.5" y="-311.45" font-family="Helvetica,sans-Serif" font-size="11.00">u26a0 Collision Rule</text>
<text text-anchor="middle" x="468.5" y="-299.45" font-family="Helvetica,sans-Serif" font-size="11.00">Lifted fields matching reserved properties</text>
<text text-anchor="middle" x="468.5" y="-287.45" font-family="Helvetica,sans-Serif" font-size="11.00">(node_id, occurred_at, event_name, data, labels)</text>
<text text-anchor="middle" x="468.5" y="-275.45" font-family="Helvetica,sans-Serif" font-size="11.00">are prefixed with data_</text>
<text text-anchor="middle" x="468.5" y="-263.45" font-family="Helvetica,sans-Serif" font-size="11.00">None values are silently skipped</text>
</g>
<!-- stage3&#45;&gt;collision_note -->
<g id="edge7" class="edge">
<title>stage3&#45;&gt;collision_note</title>
<path fill="none" stroke="#aaaaaa" stroke-dasharray="1,5" d="M445.25,-400.12C445.25,-373.28 445.25,-345.59 445.25,-324.72"/>
</g>
<!-- stage5 -->
<g id="node6" class="node">
<title>stage5</title>
<path fill="#f5f5f5" stroke="black" d="M281,-180.25C281,-180.25 12,-180.25 12,-180.25 6,-180.25 0,-174.25 0,-168.25 0,-168.25 0,-122.25 0,-122.25 0,-116.25 6,-110.25 12,-110.25 12,-110.25 281,-110.25 281,-110.25 287,-110.25 293,-116.25 293,-122.25 293,-122.25 293,-168.25 293,-168.25 293,-174.25 287,-180.25 281,-180.25"/>
<text text-anchor="start" x="88" y="-163.45" font-family="Helvetica,sans-Serif" font-weight="bold" font-size="11.00">⑤ HAS_EVENT Edge</text>
<text text-anchor="start" x="13.5" y="-142.45" font-family="Helvetica,sans-Serif" font-size="11.00">(Session)&#45;[:HAS_EVENT {occurred_at}]&#45;&gt;(Event)</text>
<text text-anchor="start" x="34" y="-122.45" font-family="Helvetica,sans-Serif" font-size="11.00">Directed: Session → Event node (always)</text>
</g>
<!-- stage4&#45;&gt;stage5 -->
<g id="edge5" class="edge">
<title>stage4&#45;&gt;stage5</title>
<path fill="none" stroke="black" d="M146.5,-245.17C146.5,-245.17 146.5,-190.64 146.5,-190.64"/>
<polygon fill="black" stroke="black" points="150,-190.64 146.5,-180.64 143,-190.64 150,-190.64"/>
</g>
<!-- output -->
<g id="node7" class="node">
<title>output</title>
<ellipse fill="#e3f2fd" stroke="black" cx="146.5" cy="-22.63" rx="104.8" ry="22.76"/>
<text text-anchor="middle" x="146.5" y="-25.83" font-family="Helvetica,sans-Serif" font-size="11.00">Event node persisted</text>
<text text-anchor="middle" x="146.5" y="-13.83" font-family="Helvetica,sans-Serif" font-size="11.00">in Neo4j property graph</text>
</g>
<!-- stage5&#45;&gt;output -->
<g id="edge6" class="edge">
<title>stage5&#45;&gt;output</title>
<path fill="none" stroke="black" d="M146.5,-110.11C146.5,-110.11 146.5,-55.39 146.5,-55.39"/>
<polygon fill="black" stroke="black" points="150,-55.39 146.5,-45.39 143,-55.39 150,-55.39"/>
</g>
<!-- legend_green -->
<g id="node9" class="node">
<title>legend_green</title>
<path fill="#c8e6c9" stroke="black" stroke-width="2.5" d="M828.5,-1042.38C828.5,-1042.38 572.5,-1042.38 572.5,-1042.38 566.5,-1042.38 560.5,-1036.38 560.5,-1030.38 560.5,-1030.38 560.5,-1013.38 560.5,-1013.38 560.5,-1007.38 566.5,-1001.38 572.5,-1001.38 572.5,-1001.38 828.5,-1001.38 828.5,-1001.38 834.5,-1001.38 840.5,-1007.38 840.5,-1013.38 840.5,-1013.38 840.5,-1030.38 840.5,-1030.38 840.5,-1036.38 834.5,-1042.38 828.5,-1042.38"/>
<text text-anchor="middle" x="700.5" y="-1030.38" font-family="Helvetica,sans-Serif" font-weight="bold" font-size="10.00">Green + bold border</text>
<text text-anchor="middle" x="700.5" y="-1019.38" font-family="Helvetica,sans-Serif" font-weight="bold" font-size="10.00">= ALL matching lifters fire</text>
<text text-anchor="middle" x="700.5" y="-1008.38" font-family="Helvetica,sans-Serif" font-weight="bold" font-size="10.00">(not first&#45;match; every matching pattern runs)</text>
</g>
<!-- legend_blue -->
<g id="node10" class="node">
<title>legend_blue</title>
<ellipse fill="#e3f2fd" stroke="black" cx="700.5" cy="-869.25" rx="84.36" ry="18"/>
<text text-anchor="middle" x="700.5" y="-866.75" font-family="Helvetica,sans-Serif" font-size="10.00">Blue oval = Input / Output</text>
</g>
<!-- legend_green&#45;&gt;legend_blue -->
</g>
</svg>
